# xmcd CD database file
#
# Track frame offsets:
#	150
#	20084
#	36666
#	56076
#	75764
#	93016
#	112513
#	131406
#	144065
#	162253
#	179780
#	201586
#	219415
#	234708
#	250267
#	269330
#	288788
#	307305
#	323987
#
# Disc length: 4534 seconds
#
# Revision: 0
# Processed by: cddbd v1.5.1PL2 Copyright (c) Steve Scherf et al.
# Submitted via: CDex 1.51
#
DISCID=1111b413
DTITLE=Smokie - The Love Songs
DYEAR=1900
DGENRE=Country
TTITLE0=Boulevard Of Broken Dreams
TTITLE1=Still The One
TTITLE2=Lay Back In The Arms Of Someone
TTITLE3=No Matter What
TTITLE4=Coming Home Tonight
TTITLE5=Cant Fight The Feeling
TTITLE6=Love Hurts
TTITLE7=Arms Of Mary
TTITLE8=Baby Its You
TTITLE9=Hungry Eyes
TTITLE10=(I Just)Died In Your Arms Tonight
TTITLE11=If You Think You Know How To Love Me
TTITLE12=Only You
TTITLE13=When You Walk In The Room
TTITLE14=Everytime You Go Away
TTITLE15=Just When I Needed You Most
TTITLE16=Miss You Nights
TTITLE17=Mexican Girl
TTITLE18=Living Next Door To Alice
EXTD=
EXTT0=
EXTT1=
EXTT2=
EXTT3=
EXTT4=
EXTT5=
EXTT6=
EXTT7=
EXTT8=
EXTT9=
EXTT10=
EXTT11=
EXTT12=
EXTT13=
EXTT14=
EXTT15=
EXTT16=
EXTT17=
EXTT18=
PLAYORDER=
